<?xml version="1.0" encoding="UTF-8" standalone="no"?><!DOCTYPE svg PUBLIC "-//W3C//DTD SVG 1.1//EN" "http://www.w3.org/Graphics/SVG/1.1/DTD/svg11.dtd"><svg width="100%" height="100%" viewBox="0 0 7442 4084" version="1.1" xmlns="http://www.w3.org/2000/svg" xmlns:xlink="http://www.w3.org/1999/xlink" xml:space="preserve" xmlns:serif="http://www.serif.com/" style="fill-rule:evenodd;clip-rule:evenodd;stroke-linejoin:round;stroke-miterlimit:2;"><path id="path5" d="M2523.192,1430.151l-140.715,2226.196l-7.008,0c0,70.358 -56.341,126.699 -126.699,126.699l-1723.763,0c-70.358,0 -126.699,-56.341 -126.699,-126.699l-140.715,-2226.196l91.52,-924.19c14.072,-105.536 98.528,-189.883 204.065,-196.919l16.083,0.001c-0.41,0 -16.692,7.698 -18.872,31.335c-55.482,601.708 -53.553,601.883 -53.553,601.883c-7.036,56.286 14.154,112.517 49.333,154.732c42.215,42.215 105.427,70.358 168.749,70.358l1350.95,0c63.322,0 126.671,-28.143 168.886,-70.358c35.179,-42.215 56.231,-98.446 49.195,-154.732l-53.741,-604.001c-1.21,-20.003 -2.6,-29.218 -2.6,-29.218c98.501,14.072 175.977,91.383 190.048,196.919l105.537,924.19Zm-1140.113,612.729c-73.309,0 -132.826,59.518 -132.826,132.826c0,73.309 59.518,132.826 132.826,132.826c73.309,0 132.826,-59.518 132.826,-132.826c0,-73.309 -59.518,-132.826 -132.826,-132.826Z" style="fill:#008785;"/><path id="path51" serif:id="path5" d="M756.495,309.043l1277.013,0c40.956,2.065 58.015,33.507 58.838,55.718l57.896,591.517c0,21.107 -6.981,35.151 -14.017,42.187c-14.072,14.072 -35.206,28.171 -63.349,28.171l-1357.958,0c-21.107,0 -49.14,-7.063 -63.212,-28.171c-7.036,-7.036 -21.19,-21.08 -14.154,-42.187l57.664,-589.153c3.863,-34.398 30.336,-58.083 61.279,-58.083Z" style="fill:#00e380;"/><g><path d="M2971.384,544.387l-270.646,0l0,-235.344l800.171,0l0,235.344l-270.646,0l0,1412.066l-258.879,0l0,-1412.066Z" style="fill:#00e380;fill-rule:nonzero;"/><path d="M3625.641,309.043l383.611,0c133.362,0 230.638,30.987 291.827,92.961c61.19,61.974 91.784,157.289 91.784,285.943l0,101.198c0,171.017 -56.483,279.275 -169.448,324.775l0,4.707c62.759,18.828 107.082,57.267 132.97,115.319c25.888,58.052 38.832,135.715 38.832,232.991l0,289.474c0,47.069 1.569,85.116 4.707,114.142c3.138,29.026 10.983,57.659 23.534,85.901l-263.586,0c-9.414,-26.672 -15.69,-51.776 -18.828,-75.31c-3.138,-23.534 -4.707,-65.896 -4.707,-127.086l0,-301.241c0,-75.31 -12.159,-127.87 -36.478,-157.681c-24.319,-29.81 -66.289,-44.715 -125.909,-44.715l-89.431,0l0,706.033l-258.879,0l0,-1647.411Zm353.017,706.033c51.776,-0 90.608,-13.336 116.495,-40.009c25.888,-26.672 38.832,-71.388 38.832,-134.146l0,-127.086c0,-59.621 -10.59,-102.767 -31.771,-129.439c-21.181,-26.672 -54.521,-40.009 -100.021,-40.009l-117.672,0l0,470.689l94.138,0Z" style="fill:#00e380;fill-rule:nonzero;"/><path d="M4774.122,309.043l350.663,0l268.293,1647.411l-258.879,0l-47.069,-327.129l0,4.707l-294.18,0l-47.069,322.422l-240.051,0l268.293,-1647.411Zm282.413,1101.412l-115.319,-814.292l-4.707,0l-112.965,814.292l232.991,0Z" style="fill:#00e380;fill-rule:nonzero;"/><path d="M5847.292,1979.988c-125.517,0 -220.439,-35.694 -284.767,-107.082c-64.327,-71.388 -96.491,-173.763 -96.491,-307.124l0,-94.138l244.758,0l0,112.965c0,106.689 44.715,160.034 134.146,160.034c43.931,0 77.271,-12.944 100.021,-38.832c22.75,-25.888 34.125,-67.858 34.125,-125.909c0,-69.034 -15.69,-129.832 -47.069,-182.392c-31.379,-52.56 -89.431,-115.711 -174.155,-189.452c-106.689,-94.138 -181.215,-179.254 -223.577,-255.349c-42.362,-76.095 -63.543,-161.995 -63.543,-257.702c0,-130.224 32.948,-231.03 98.845,-302.418c65.896,-71.388 161.603,-107.082 287.12,-107.082c123.948,0 217.694,35.694 281.237,107.082c63.543,71.388 95.314,173.763 95.314,307.124l0,68.25l-244.758,0l0,-84.724c0,-56.483 -10.983,-97.668 -32.948,-123.556c-21.965,-25.888 -54.129,-38.832 -96.491,-38.832c-86.293,0 -129.439,52.56 -129.439,157.681c0,59.621 16.082,115.319 48.246,167.095c32.164,51.776 90.608,114.534 175.332,188.276c108.258,94.138 182.784,179.646 223.577,256.525c40.793,76.879 61.19,167.095 61.19,270.646c0,134.931 -33.34,238.482 -100.021,310.655c-66.681,72.172 -163.564,108.258 -290.65,108.258Z" style="fill:#00e380;fill-rule:nonzero;"/><path d="M6386.231,309.043l258.879,0l0,670.732l277.706,0l0,-670.732l258.879,0l0,1647.411l-258.879,0l0,-741.335l-277.706,0l0,741.335l-258.879,0l0,-1647.411Z" style="fill:#00e380;fill-rule:nonzero;"/><path d="M3775.438,3787.24c-123.948,0 -218.478,-35.302 -283.59,-105.905c-65.112,-70.603 -97.668,-170.232 -97.668,-298.887l0,-884.895c0,-128.655 32.556,-228.284 97.668,-298.887c65.112,-70.603 159.642,-105.905 283.59,-105.905c123.948,0 218.478,35.302 283.59,105.905c65.112,70.603 97.668,170.232 97.668,298.887l0,174.155l-244.758,0l0,-190.629c0,-101.983 -43.146,-152.974 -129.439,-152.974c-86.293,0 -129.439,50.991 -129.439,152.974l0,920.197c0,100.414 43.146,150.62 129.439,150.62c86.293,0 129.439,-50.207 129.439,-150.62l0,-251.818l244.758,0l0,232.991c-0,128.655 -32.556,228.284 -97.668,298.887c-65.112,70.603 -159.642,105.905 -283.59,105.905Z" style="fill:#00e380;fill-rule:nonzero;"/><path d="M4512.066,2116.295l350.663,0l268.293,1647.411l-258.879,0l-47.069,-327.129l0,4.707l-294.18,0l-47.069,322.422l-240.051,0l268.293,-1647.411Zm282.413,1101.412l-115.319,-814.292l-4.707,0l-112.965,814.292l232.991,0Z" style="fill:#00e380;fill-rule:nonzero;"/><path d="M5255.754,2116.295l324.775,0l251.818,986.093l4.707,0l0,-986.093l230.638,0l0,1647.411l-265.939,0l-310.655,-1202.61l-4.707,0l0,1202.61l-230.638,0l0,-1647.411Z" style="fill:#00e380;fill-rule:nonzero;"/><path d="M6433.107,3094.132c-72.262,0 -127.373,-20.581 -165.333,-61.743c-37.96,-41.162 -56.94,-99.246 -56.94,-174.251l0,-515.894c0,-75.006 18.98,-133.09 56.94,-174.251c37.96,-41.162 93.071,-61.743 165.333,-61.743c72.262,0 127.373,20.581 165.333,61.743c37.96,41.162 56.94,99.246 56.94,174.251l0,101.532l-142.694,0l0,-111.137c0,-59.456 -25.154,-89.184 -75.463,-89.184c-50.309,0 -75.463,29.728 -75.463,89.184l0,536.475c0,58.541 25.154,87.812 75.463,87.812c50.309,0 75.463,-29.271 75.463,-87.812l0,-146.81l142.694,0l0,135.834c0,75.006 -18.98,133.09 -56.94,174.251c-37.96,41.162 -93.071,61.743 -165.333,61.743Z" style="fill:#008785;fill-rule:nonzero;"/><path d="M6968.8,3094.132c-74.091,0 -130.803,-21.038 -170.135,-63.115c-39.332,-42.076 -58.998,-101.532 -58.998,-178.368l0,-504.917c0,-76.835 19.666,-136.291 58.998,-178.368c39.332,-42.076 96.044,-63.115 170.135,-63.115c74.091,0 130.803,21.038 170.135,63.115c39.332,42.076 58.998,101.532 58.998,178.368l0,504.917c0,76.835 -19.666,136.291 -58.998,178.368c-39.332,42.076 -96.044,63.115 -170.135,63.115Zm0,-137.206c52.138,0 78.207,-31.557 78.207,-94.672l0,-524.126c0,-63.115 -26.069,-94.672 -78.207,-94.672c-52.138,0 -78.207,31.557 -78.207,94.672l0,524.126c0,63.115 26.069,94.672 78.207,94.672Z" style="fill:#008785;fill-rule:nonzero;"/></g></svg>